<?xml version="1.0" encoding="UTF-8"?>
<svg version="1.1" xmlns="http://www.w3.org/2000/svg" width="1080" height="1080">
<path d="M0 0 C94.05 0 188.1 0 285 0 C285 25.08 285 50.16 285 76 C278.29028523 73.76342841 278.29028523 73.76342841 275.31613159 71.69236755 C249.59427196 54.40614889 226.5198324 48.72793351 196.1328125 48.53515625 C195.39722154 48.5296358 194.66163058 48.52411535 193.90374899 48.51842761 C181.30456666 48.44409082 168.72320033 48.79152466 156.125 49.0625 C120.918125 49.5265625 120.918125 49.5265625 85 50 C85 132.5 85 215 85 300 C56.95 300 28.9 300 0 300 C6.74607703 289.88088445 6.74607703 289.88088445 9.6640625 286.08984375 C10.31246094 285.24357422 10.96085937 284.39730469 11.62890625 283.52539062 C12.28761719 282.67138672 12.94632812 281.81738281 13.625 280.9375 C15.59963683 278.36806891 17.57010296 275.79822436 19.50750065 273.20054054 C21.24253015 270.91550572 23.08059022 268.77835791 25.00549221 266.65155602 C34.36751554 255.91198735 35.74860315 247.40482752 35.56860352 233.46728516 C35.58654564 231.45469763 35.60955643 229.44215 35.63719177 227.42967224 C35.69571553 222.00929068 35.67923766 216.5916372 35.64483762 211.17114305 C35.62342861 206.62621138 35.64055831 202.08175264 35.6577763 197.5368284 C35.6982814 186.80468035 35.67899321 176.0738249 35.61938477 165.34179688 C35.55896016 154.31404414 35.58885415 143.28924113 35.66521889 132.26165354 C35.72846754 122.75175617 35.74051858 113.24275224 35.71119446 103.73268926 C35.69389876 98.07112505 35.69396833 92.41107917 35.74127388 86.74965286 C35.7831229 81.42113264 35.76018331 76.09652624 35.68992043 70.76834297 C35.67449785 68.82796928 35.68053664 66.88726996 35.7111702 64.9470768 C35.92152762 50.34284196 32.0275444 41.92490986 22.5631932 30.84329867 C20.39483264 28.28639391 18.40781294 25.61859694 16.40625 22.9296875 C14.4406669 20.37828355 12.46740171 17.83301543 10.4921875 15.2890625 C9.52152344 14.02835937 9.52152344 14.02835937 8.53125 12.7421875 C7.96986328 12.0188623 7.40847656 11.29553711 6.83007812 10.55029297 C4.38759333 7.14658484 2.22037051 3.55259282 0 0 Z " fill="#FEFEFE" transform="translate(396,390)"/>
<path d="M0 0 C16.83 0 33.66 0 51 0 C51 19.8 51 39.6 51 60 C84 60 117 60 151 60 C151 76.5 151 93 151 110 C118 110 85 110 51 110 C51 134.75 51 159.5 51 185 C62.611875 185.165 74.22375 185.33 86.1875 185.5 C89.8074292 185.59345703 93.4273584 185.68691406 97.15698242 185.78320312 C114.85704658 185.94652579 127.28623422 185.12264686 140.71020508 172.20410156 C141.3972049 171.51048523 142.08420471 170.8168689 142.79202271 170.10223389 C146.69487832 166.38629199 151.11275469 163.36238907 155.5 160.25 C157.03285417 159.13240524 158.56438174 158.0129853 160.09375 156.890625 C160.77308594 156.39369141 161.45242188 155.89675781 162.15234375 155.38476562 C163.77160342 154.17117672 165.34347459 152.89488381 166.90625 151.609375 C169 150 169 150 171 150 C171 178.38 171 206.76 171 236 C86.355 235.505 86.355 235.505 0 235 C0 157.45 0 79.9 0 0 Z " fill="#FCFCFC" transform="translate(498,455)"/>
<path d="" fill="#000000" transform="translate(0,0)"/>
</svg>
